<svg xmlns="http://www.w3.org/2000/svg" viewBox="0 0 32 32">
  <!-- 背景 -->
  <rect width="32" height="32" rx="6" fill="#4f46e5"/>
  
  <!-- グラデーション -->
  <defs>
    <linearGradient id="shopGradient" x1="0%" y1="0%" x2="100%" y2="100%">
      <stop offset="0%" stop-color="#4f46e5"/>
      <stop offset="100%" stop-color="#8b5cf6"/>
    </linearGradient>
    <linearGradient id="bagGradient" x1="0%" y1="0%" x2="100%" y2="100%">
      <stop offset="0%" stop-color="#ffffff"/>
      <stop offset="100%" stop-color="#e0e7ff"/>
    </linearGradient>
  </defs>
  
  <!-- メインのショッピングバッグアイコン -->
  <path d="M22 9h-4V7c0-1.7-1.3-3-3-3s-3 1.3-3 3v2H8c-.6 0-1 .4-1 1l-2 12c0 .3.1.6.3.8.2.2.5.3.7.3h18c.3 0 .5-.1.7-.3.2-.2.3-.5.3-.8l-2-12c0-.6-.4-1-1-1zm-8-2c0-.6.4-1 1-1s1 .4 1 1v2h-2V7zm-4.7 12c0-.7.6-1.3 1.3-1.3.7 0 1.3.6 1.3 1.3 0 .7-.6 1.3-1.3 1.3-.7 0-1.3-.6-1.3-1.3zm10.7 0c0-.7.6-1.3 1.3-1.3.7 0 1.3.6 1.3 1.3 0 .7-.6 1.3-1.3 1.3-.7 0-1.3-.6-1.3-1.3z" fill="url(#bagGradient)"/>
  
  <!-- 装飾要素 -->
  <circle cx="24" cy="8" r="6" fill="#ec4899" opacity="0.8"/>
  <circle cx="8" cy="24" r="4" fill="#8b5cf6" opacity="0.8"/>
</svg>